<?xml version="1.0" encoding="UTF-8" standalone="no"?>
<!-- Created with Inkscape (http://www.inkscape.org/) -->

<svg
   xmlns:dc="http://purl.org/dc/elements/1.1/"
   xmlns:cc="http://creativecommons.org/ns#"
   xmlns:rdf="http://www.w3.org/1999/02/22-rdf-syntax-ns#"
   xmlns:svg="http://www.w3.org/2000/svg"
   xmlns="http://www.w3.org/2000/svg"
   xmlns:sodipodi="http://sodipodi.sourceforge.net/DTD/sodipodi-0.dtd"
   xmlns:inkscape="http://www.inkscape.org/namespaces/inkscape"
   version="1.1"
   id="svg2"
   width="218.88"
   height="173.75999"
   viewBox="0 0 218.88 173.75999"
   sodipodi:docname="kaug.svg"
   inkscape:version="0.92.4 5da689c313, 2019-01-14">
  <metadata
     id="metadata8">
    <rdf:RDF>
      <cc:Work
         rdf:about="">
        <dc:format>image/svg+xml</dc:format>
        <dc:type
           rdf:resource="http://purl.org/dc/dcmitype/StillImage" />
      </cc:Work>
    </rdf:RDF>
  </metadata>
  <defs
     id="defs6" />
  <sodipodi:namedview
     pagecolor="#ffffff"
     bordercolor="#666666"
     borderopacity="1"
     objecttolerance="10"
     gridtolerance="10"
     guidetolerance="10"
     inkscape:pageopacity="0"
     inkscape:pageshadow="2"
     inkscape:window-width="1366"
     inkscape:window-height="713"
     id="namedview4"
     showgrid="false"
     inkscape:zoom="21.731124"
     inkscape:cx="128.2582"
     inkscape:cy="115.82378"
     inkscape:window-x="0"
     inkscape:window-y="27"
     inkscape:window-maximized="1"
     inkscape:current-layer="svg2"
     showguides="false" />
  <path
     style="fill:#000000;stroke-width:0.31999999"
     d="m 66.502712,166.75999 v -57 h -15 v 25.9053 l -20,-0.14586 V 109.75999 H 10 v -7.38225 l 113.46479,-0.50286 v -6.695327 l -1.36,-0.34159 C 110.22711,91.854657 100,82.703043 100,63.759995 v -40 h 12 v 27.234891 h -1.36725 c -0.3696,0 -1.17005,0.498048 -1.77877,1.106774 l -1.10678,1.106772 0.0988,6.441567 0.0988,6.441565 0.88126,0.757398 c 0.4847,0.416566 1.36449,0.848051 1.9551,0.958848 0.99807,0.187241 0.71101,0.340099 1.21884,2.166685 1.9065,6.857282 7.55462,12.30757 13.6248,13.736398 l 1.68,0.39545 v 8.88427 8.884267 h 4.16 v -8.889117 -8.88913 l 2.18952,-0.56403 c 5.92709,-1.526855 11.30316,-7.192794 12.95222,-13.650601 0.42046,-1.646535 0.51948,-1.767811 1.63206,-1.99897 3.21808,-0.668617 3.44997,-1.291766 3.32538,-8.936281 l -0.0992,-6.085734 -1.04505,-0.933065 c -0.65952,-0.588848 -1.39734,-0.933066 -2,-0.933066 h -0.95498 L 147,23.759995 h 12 v 40 c 0,11.236156 -2.95613,24.491527 -21.29525,30.732058 L 135.3,95.073403 v 6.801477 l 74.72475,0.384 v 7.50111 h -18.52203 v 17 h -20 v -17 h -15 v 44 h -20 v -44 h -15 v 34 h -20.00001 v -34 H 86.502712 v 57 z"
     id="path61"
     inkscape:connector-curvature="0"
     sodipodi:nodetypes="ccccccccccsscccsccccccccccccccccsccsscccscccccccccccccccccccc" />
  <path
     style="fill:#000000;stroke-width:0.31999999"
     d="m 180.34591,94.348053 c -8.29177,-1.56232 -13.32163,-6.28298 -15.67685,-14.713169 -0.70389,-2.519478 -0.71521,-2.863903 -0.71521,-21.759998 0,-18.896095 0.0113,-19.240521 0.71521,-21.759999 2.2203,-7.947254 6.96771,-12.715566 14.39454,-14.457917 3.43917,-0.806836 11.52031,-0.799064 14.45387,0.0139 8.6525,2.397831 13.51708,8.857172 14.78835,19.636467 0.30463,2.583018 0.28722,3.096403 -0.11878,3.502403 -0.39014,0.390138 -1.56298,0.469191 -6.51863,0.439389 -4.29981,-0.02586 -6.14261,-0.148537 -6.38857,-0.425293 -0.19011,-0.213923 -0.50952,-1.581414 -0.70979,-3.03887 -0.87731,-6.384575 -3.70591,-9.03535 -9.19822,-8.619967 -3.69061,0.27912 -6.07303,1.905126 -7.0999,4.845702 -0.51728,1.48128 -0.56718,3.229056 -0.56718,19.864184 0,20.313775 0.0104,20.421935 2.16718,22.468357 1.84062,1.746467 2.98113,2.146823 6.15282,2.159831 2.3567,0.0097 3.11258,-0.11369 4.16,-0.678883 3.10586,-1.675933 4.36562,-4.178983 4.57384,-9.087875 0.19215,-4.530157 0.26691,-4.461431 -4.8527,-4.461431 -2.61689,0 -4.04034,-0.127203 -4.29714,-0.384 -0.26476,-0.264758 -0.384,-1.884445 -0.384,-5.216 0,-3.331555 0.11924,-4.951241 0.384,-5.215999 0.55011,-0.550106 22.04189,-0.550106 22.592,0 0.55411,0.554112 0.55411,35.477888 0,36.031998 -0.43119,0.43119 -5.92047,0.53655 -6.56658,0.12604 -0.21482,-0.13649 -0.6163,-0.88793 -0.89218,-1.66986 -0.64733,-1.83474 -1.33578,-2.87218 -1.906,-2.87218 -0.2497,0 -1.29038,0.73915 -2.31262,1.64257 -1.02224,0.90341 -2.92723,2.15509 -4.23331,2.7815 -2.22021,1.06484 -2.60534,1.14469 -5.92,1.22754 -2.14514,0.0536 -4.5243,-0.0958 -6.02415,-0.37844 z"
     id="path59" />
  <path
     style="fill:#000000;stroke-width:0.31999999"
     d="M 67.833984,23.759995 52.423828,83.423828 37.384766,51.703125 53.519531,23.759995 H 40.201172 L 22.824,52.435547 V 23.759995 H 9.609375 v 70 H 22.824 V 72.650391 l 4.721266,-6.918609 14.501609,28.028213 h 20.947266 l 4.396484,-14.525628 17.925781,0.160156 3.992188,14.365472 H 101.49609 L 94.371075,63.546958 84.988281,23.759995 Z m 8.429688,14.814224 5.929686,27.929687 -11.996093,-0.02344 6.066406,-27.90625 z"
     id="path57"
     inkscape:connector-curvature="0"
     sodipodi:nodetypes="cccccccccccccccccccccccccc" />
  <path
     style="fill:#000000;stroke-width:0.31999999"
     d="m 127.20696,79.756254 c -3.92831,-0.555686 -8.02945,-3.756224 -9.99295,-7.798521 -0.59919,-1.233568 -1.18151,-2.638848 -1.29404,-3.122848 l -0.2046,-0.88 h 13.63469 c 15.31591,0 14.09921,-0.242176 12.985,2.584579 -2.56691,6.512294 -8.53643,10.149225 -15.1281,9.21679 z"
     id="path53" />
  <path
     style="fill:#000000;stroke-width:0.31999999"
     d="m 142.77899,65.074995 c -1.46212,-0.621808 -1.71424,-1.466666 -1.71424,-5.845857 0,-3.929971 0.0332,-4.136531 0.78546,-4.888796 0.60581,-0.605821 1.12143,-0.785456 2.25454,-0.785456 1.13311,0 1.64873,0.179635 2.25454,0.785456 0.75332,0.753315 0.78546,0.955533 0.78546,4.942153 0,3.851795 -0.0528,4.217485 -0.72,4.98535 -0.79052,0.909811 -2.52367,1.28435 -3.64576,0.80715 z"
     id="path51"
     inkscape:connector-curvature="0"
     sodipodi:nodetypes="sscscscs" />
  <path
     style="fill:#ffffff;stroke-width:0.31999999"
     d="m 145.0722,62.754885 c 0.0988,-0.396 0.13755,-2.144716 0.0861,-3.886041 -0.075,-2.538349 -0.19926,-3.232537 -0.62673,-3.501443 -0.38627,-0.242989 -0.67282,-0.21951 -1.04,0.08522 -0.40728,0.338013 -0.50682,1.125236 -0.50682,4.008112 0,1.973117 0.096,3.683485 0.21333,3.800816 0.51375,0.513744 1.69951,0.193174 1.87412,-0.506666 z"
     id="path49" />
  <path
     style="fill:#000000;stroke-width:0.31999999"
     d="m 112.26475,53.554995 1.93589,-1.09e-4 c 2.22,-1.24e-4 3.65519,0.60743 3.93907,1.667184 0.40167,1.499485 0.35447,2.83364 -0.39612,3.505081 l -1.44179,1.289758 c 0.55869,1.615139 1.88335,3.419357 2.36295,5.058086 h -2.04044 l -2.46731,-4.64011 v 4.64011 h -1.89225 z"
     id="path47"
     inkscape:connector-curvature="0"
     sodipodi:nodetypes="cscsccccccc" />
  <path
     style="fill:#ffffff;stroke-width:0.31999999"
     d="m 116.04075,58.290886 c 0.96298,-0.962976 0.10453,-3.136 -1.23886,-3.136 -0.53471,0 -0.61714,0.235062 -0.61714,1.76 0,1.623187 0.0572,1.76 0.736,1.76 0.4048,0 0.9088,-0.1728 1.12,-0.384 z"
     id="path45" />
  <path
     style="fill:#000000;stroke-width:0.31999999"
     d="m 119.62326,65.074995 c -9.6e-4,-0.132 0.45542,-2.96411 1.01386,-6.000109 l 1.01534,-5.519891 h 2.23716 l 2.27445,11.52 h -1.7533 c -0.1648,-0.170906 -0.23579,-0.788521 -0.30602,-1.28011 -0.14116,-0.988102 -0.28166,-1.131747 -1.19306,-1.219756 -0.98287,-0.09491 -1.04315,-0.03661 -1.2409,1.199999 -0.0935,0.584874 -0.16847,1.121146 -0.32342,1.299867 z"
     id="path43"
     inkscape:connector-curvature="0"
     sodipodi:nodetypes="cccccccsccc" />
  <path
     style="fill:#ffffff;stroke-width:0.31999999"
     d="m 123.44631,59.874886 c -0.0102,-0.572 -0.12496,-1.616 -0.25516,-2.32 -0.21202,-1.146483 -0.25777,-1.196554 -0.43859,-0.48 -0.11104,0.44 -0.30057,1.484 -0.42118,2.32 -0.20243,1.403059 -0.16726,1.519999 0.45704,1.519999 0.55349,0 0.67298,-0.188892 0.65789,-1.039999 z"
     id="path41" />
  <path
     style="fill:#000000;stroke-width:0.36306885"
     d="m 127.60347,53.554995 c 3.9224,-0.368275 5.61119,2.472971 5.73553,4.29744 0.0849,1.245933 0.042,1.89556 0,2.549024 -0.18694,2.905387 -1.05229,4.957848 -5.72946,4.673536 z"
     id="path39"
     inkscape:connector-curvature="0"
     sodipodi:nodetypes="csscc" />
  <path
     style="fill:#ffffff;stroke-width:0.36306885"
     d="m 129.36436,55.86257 c 0.027,1.610229 0.004,2.865159 0.0116,4.476406 v 2.725552 c 3.15011,0.227124 3.70011,-6.556526 -0.0116,-7.201958 z"
     id="path37"
     inkscape:connector-curvature="0"
     sodipodi:nodetypes="cccc" />
  <path
     style="fill:#000000;stroke-width:0.31999999"
     d="m 134.67773,53.554995 v 0.982117 0.537932 h 1.90625 v 4.239412 4.441833 h -1.90625 v 0.407776 0.910933 l 2.83204,0.04805 2.83203,-0.04805 v -0.910933 -0.407776 h -1.83789 v -4.441833 -4.239412 h 1.83789 v -0.537932 -0.982117 c -1.90509,-0.0388 -3.75785,0 -5.66407,0 z"
     id="path35"
     inkscape:connector-curvature="0"
     sodipodi:nodetypes="cccccccccccccccccccc" />
  <path
     style="fill:#000000;stroke-width:0.31999999"
     d="m 115.21465,32.827642 0.0901,-13.512647 c -0.17104,-7.652825 7.81598,-15.7341062 15.0026,-14.9629577 2.94021,0.183433 5.0198,0.952688 7.48198,2.767633 3.05464,2.2516555 5.51542,6.9939067 5.51542,10.6289247 v 1.5664 l -6.24,-1.07e-4 c -5.81333,-9.9e-5 -6.28376,0.04376 -6.88,0.64 -0.352,0.352 -0.64,0.928 -0.64,1.28 0,0.352 0.288,0.928 0.64,1.28 0.59733,0.597333 1.06667,0.64 7.04,0.64 h 6.4 v 2.399999 2.4 h -6.05917 c -3.33254,0 -6.42452,0.138907 -6.87106,0.308682 -1.0596,0.40286 -1.38625,1.682744 -0.69767,2.733649 l 0.52266,0.797669 h 6.55262 6.55262 v 2.4 2.4 h -5.89917 c -3.24454,0 -6.27031,0.141107 -6.72393,0.313574 -1.22641,0.466279 -1.68461,1.691242 -1.01492,2.713318 l 0.53278,0.813108 h 6.55262 6.55262 v 5.279999 5.28 h -14.2501 -14.2501 z"
     id="path12"
     inkscape:connector-curvature="0"
     sodipodi:nodetypes="ccccscssscscccssccccccscccccccccc" />
</svg>
